<svg width="66" height="50" viewBox="0 0 66 50" fill="none" xmlns="http://www.w3.org/2000/svg">
<g clip-path="url(#clip0_1_67)">
<path d="M0.22716 42.9166H3.88824V43.8754H1.37401V45.0982H3.22299V46.0194H1.37401V47.2348H3.8875V48.1936H0.22716V42.9173V42.9166Z" fill="#606060"/>
<path d="M4.44655 44.5694H5.54841V45.0149C5.71435 44.829 5.91201 44.6889 6.14064 44.596C6.36928 44.503 6.60971 44.4566 6.86121 44.4566C7.35461 44.4566 7.72264 44.5886 7.96676 44.8526C8.21088 45.1167 8.33257 45.4729 8.33257 45.9206V48.1929H7.19309V46.0489C7.19309 45.5806 6.977 45.3468 6.54407 45.3468C6.35305 45.3468 6.17457 45.3932 6.00789 45.4862C5.84194 45.5791 5.70108 45.7163 5.58529 45.8977V48.1921H4.44581V44.5694H4.44655Z" fill="#606060"/>
<path d="M9.534 47.8035C9.13647 47.4686 8.93734 46.9996 8.93734 46.3955C8.93734 45.7915 9.11508 45.3239 9.46983 44.9765C9.82458 44.6292 10.3313 44.4558 10.9906 44.4558C11.4235 44.4558 11.7908 44.5362 12.0925 44.697C12.3941 44.8578 12.6235 45.0805 12.7791 45.3652C12.9347 45.6499 13.0129 45.9707 13.0129 46.3277V46.7879H10.0237C10.1041 47.2511 10.537 47.4826 11.3218 47.4826C11.5533 47.4826 11.7923 47.4627 12.0386 47.4222C12.285 47.3823 12.4989 47.327 12.6803 47.2562V48.0564C12.504 48.1317 12.2776 48.1921 12.001 48.2379C11.7244 48.2829 11.4471 48.3057 11.1706 48.3057C10.4758 48.3057 9.93005 48.1383 9.53252 47.8035H9.534ZM11.9339 46.0489C11.9192 45.807 11.8284 45.6197 11.6625 45.4869C11.4966 45.3534 11.2672 45.287 10.9759 45.287C10.6845 45.287 10.4625 45.3549 10.2966 45.4906C10.1307 45.6263 10.0399 45.8129 10.0252 46.0489H11.9346H11.9339Z" fill="#606060"/>
<path d="M13.6472 44.5694H14.749V45.0901C14.8951 44.9138 15.0986 44.7796 15.3604 44.6859C15.6223 44.593 15.9188 44.5465 16.2514 44.5465V45.4146C15.904 45.4146 15.5987 45.4677 15.3339 45.5732C15.0691 45.6786 14.887 45.8402 14.7867 46.0562V48.1921H13.6472V44.5694Z" fill="#606060"/>
<path d="M17.9536 49.8604C17.7095 49.8154 17.5044 49.755 17.3385 49.679V48.8412C17.7257 49.0123 18.1741 49.0978 18.6823 49.0978C19.0901 49.0978 19.3814 49.0145 19.5577 48.8485C19.734 48.6826 19.8217 48.4333 19.8217 48.1014V47.875C19.6654 48.0159 19.4744 48.1228 19.2479 48.1958C19.0215 48.2688 18.7796 48.305 18.5237 48.305C18.1512 48.305 17.8179 48.2231 17.5236 48.0594C17.2293 47.8957 16.9992 47.6685 16.8333 47.3764C16.6673 47.0844 16.584 46.7525 16.584 46.38C16.584 46.0076 16.6659 45.6602 16.8296 45.3689C16.9933 45.0768 17.2198 44.8519 17.5089 44.6933C17.798 44.5348 18.1291 44.4558 18.5016 44.4558C18.7833 44.4558 19.0326 44.4964 19.2487 44.5768C19.4648 44.6572 19.6691 44.7855 19.8601 44.9618V44.5694H20.962V47.9584C20.962 48.5875 20.7761 49.0728 20.4037 49.415C20.0312 49.7572 19.4574 49.9283 18.683 49.9283C18.4418 49.9283 18.1984 49.9054 17.9543 49.8604H17.9536ZM19.4331 47.2304C19.6219 47.1021 19.7509 46.9325 19.8217 46.7208V46.0415C19.7414 45.8299 19.6093 45.6617 19.4257 45.5356C19.242 45.4102 19.0319 45.3468 18.7951 45.3468C18.4883 45.3468 18.2375 45.4397 18.0443 45.6263C17.8503 45.8122 17.7537 46.0614 17.7537 46.3734C17.7537 46.6854 17.8503 46.945 18.0443 47.136C18.2383 47.327 18.4883 47.4229 18.7951 47.4229C19.0319 47.4229 19.2443 47.3587 19.4331 47.2304Z" fill="#606060"/>
<path d="M22.0218 49.6569C21.8632 49.637 21.7437 49.6089 21.6633 49.5735V48.7209C21.8094 48.7763 21.9702 48.8043 22.1464 48.8043C22.3227 48.8043 22.4643 48.7637 22.558 48.6833C22.6509 48.6029 22.7276 48.4768 22.7881 48.3057L22.909 47.996L21.3388 44.5694H22.4864L23.5131 47.0682L24.4866 44.5694H25.6261L24.0861 48.4414C23.915 48.8692 23.7033 49.1834 23.4518 49.3847C23.2003 49.5861 22.8781 49.6864 22.4857 49.6864C22.3345 49.6864 22.1796 49.676 22.0218 49.6561V49.6569Z" fill="#606060"/>
<path d="M30.7135 42.9166H31.8383L33.9439 48.1929H32.7742L32.3213 47.0453H30.2305L29.7776 48.1929H28.5998L30.7135 42.9166ZM32.0197 46.1315L31.2726 44.1239L30.5255 46.1315H32.0197Z" fill="#606060"/>
<path d="M36.2877 48.1848C36.0687 48.1044 35.8659 47.976 35.68 47.7998V48.1921H34.5782V42.6142H35.7176V44.8939C35.8784 44.753 36.0746 44.6446 36.3062 44.5694C36.5378 44.4942 36.7819 44.4558 37.0385 44.4558C37.4162 44.4558 37.7488 44.5377 38.0386 44.7014C38.3277 44.8651 38.5527 45.093 38.7142 45.3844C38.875 45.6764 38.9561 46.0113 38.9561 46.3881C38.9561 46.765 38.8757 47.1065 38.7142 47.3956C38.5534 47.6847 38.3277 47.9089 38.0386 48.0675C37.7488 48.2261 37.4162 48.305 37.0385 48.305C36.7568 48.305 36.506 48.2644 36.2877 48.184V48.1848ZM37.5032 47.1397C37.6972 46.9509 37.7938 46.7008 37.7938 46.3889C37.7938 46.0769 37.6972 45.8254 37.5032 45.6344C37.3092 45.4434 37.0592 45.3475 36.7524 45.3475C36.5156 45.3475 36.3032 45.4117 36.1144 45.54C35.9256 45.6683 35.7936 45.8357 35.7176 46.0422V46.7289C35.798 46.9405 35.9315 47.1087 36.1181 47.2348C36.304 47.3609 36.5156 47.4236 36.7524 47.4236C37.0592 47.4236 37.31 47.3292 37.5032 47.1404V47.1397Z" fill="#606060"/>
<path d="M40.1 48.2186C39.7902 48.1611 39.5476 48.0793 39.3713 47.973V47.0821C39.5727 47.2031 39.8138 47.3012 40.0956 47.3764C40.3773 47.4516 40.6391 47.49 40.8803 47.49C41.0868 47.49 41.2373 47.4723 41.3332 47.4369C41.4283 47.4015 41.4762 47.3366 41.4762 47.2407C41.4762 47.1655 41.4482 47.1035 41.3929 47.0556C41.3376 47.0076 41.2535 46.9649 41.1399 46.9272C41.0263 46.8896 40.839 46.8328 40.5779 46.7576C40.2711 46.6669 40.0307 46.5754 39.8574 46.4818C39.684 46.3888 39.5528 46.2716 39.465 46.1307C39.3765 45.9898 39.333 45.8084 39.333 45.5872C39.333 45.2095 39.4827 44.9263 39.7821 44.7383C40.0816 44.5495 40.4879 44.4551 41.0013 44.4551C41.2528 44.4551 41.5131 44.4816 41.7823 44.534C42.0515 44.5871 42.2587 44.6564 42.4048 44.7412V45.6093C42.2587 45.5141 42.0692 45.436 41.8347 45.3755C41.6009 45.315 41.373 45.2848 41.1517 45.2848C40.9452 45.2848 40.7859 45.3047 40.6723 45.3452C40.5587 45.3858 40.5027 45.461 40.5027 45.5717C40.5027 45.6675 40.5565 45.7406 40.665 45.7907C40.7734 45.8409 40.9755 45.9043 41.2727 45.9795L41.4239 46.0171C41.741 46.1027 41.9873 46.1971 42.1636 46.3003C42.3399 46.4036 42.4645 46.5268 42.5375 46.6706C42.6105 46.8137 42.6467 46.9936 42.6467 47.2104C42.6467 47.5423 42.5036 47.8078 42.2167 48.007C41.9298 48.2061 41.5146 48.3049 40.971 48.3049C40.6996 48.3049 40.409 48.2762 40.0993 48.2179L40.1 48.2186Z" fill="#606060"/>
<path d="M44.0546 48.0682C43.725 47.9097 43.4705 47.6862 43.292 47.3964C43.1135 47.1072 43.0243 46.7687 43.0243 46.3808C43.0243 45.9928 43.1135 45.6691 43.292 45.377C43.4705 45.0849 43.725 44.8585 44.0546 44.6977C44.3843 44.537 44.7678 44.4566 45.2059 44.4566C45.644 44.4566 46.0201 44.537 46.3491 44.6977C46.6787 44.8585 46.9325 45.0849 47.1117 45.377C47.2902 45.6691 47.3794 46.0039 47.3794 46.3808C47.3794 46.7577 47.2902 47.1065 47.1117 47.3964C46.9332 47.6855 46.6802 47.9097 46.3528 48.0682C46.0253 48.2268 45.6433 48.3057 45.2052 48.3057C44.7671 48.3057 44.3836 48.2268 44.0539 48.0682H44.0546ZM45.9383 47.1323C46.1197 46.9435 46.2097 46.6935 46.2097 46.3815C46.2097 46.0695 46.1204 45.807 45.942 45.6226C45.7635 45.439 45.5179 45.3468 45.2059 45.3468C44.8939 45.3468 44.6476 45.439 44.4662 45.6226C44.2847 45.8062 44.1948 46.0592 44.1948 46.3815C44.1948 46.7038 44.2862 46.9435 44.4706 47.1323C44.6542 47.3211 44.8998 47.4155 45.2066 47.4155C45.5135 47.4155 45.7576 47.3211 45.939 47.1323H45.9383Z" fill="#606060"/>
<path d="M48.0218 42.6142H49.1613V48.1921H48.0218V42.6142Z" fill="#606060"/>
<path d="M50.286 47.9016C50.0396 47.6324 49.9165 47.2739 49.9165 46.8262V44.5694H51.056V46.7053C51.056 47.178 51.275 47.4148 51.7124 47.4148C51.9034 47.4148 52.0819 47.3698 52.2485 47.2791C52.4145 47.1884 52.5531 47.0527 52.6638 46.8712V44.5694H53.8032V48.1921H52.7014V47.7541C52.5406 47.9399 52.3452 48.0786 52.1165 48.1693C51.8872 48.26 51.6475 48.305 51.396 48.305C50.9026 48.305 50.5331 48.1708 50.2867 47.9008L50.286 47.9016Z" fill="#606060"/>
<path d="M55.1507 47.9547C54.9317 47.7209 54.8225 47.3949 54.8225 46.9774V45.3925H54.2944V44.5694H54.8225V43.4823H55.962V44.5694H56.8146V45.3925H55.962V46.827C55.962 47.0386 56.0018 47.1906 56.0829 47.2835C56.1633 47.3764 56.3071 47.4229 56.5129 47.4229C56.6788 47.4229 56.8374 47.3831 56.9886 47.3019V48.1545C56.757 48.2548 56.465 48.3057 56.1132 48.3057C55.6906 48.3057 55.3697 48.1884 55.1507 47.9547Z" fill="#606060"/>
<path d="M57.9622 47.8035C57.5646 47.4686 57.3662 46.9996 57.3662 46.3955C57.3662 45.7915 57.5432 45.3239 57.898 44.9765C58.2527 44.6292 58.7594 44.4558 59.4188 44.4558C59.8517 44.4558 60.219 44.5362 60.5206 44.697C60.8223 44.8578 61.0517 45.0805 61.2073 45.3652C61.3629 45.6499 61.4411 45.9707 61.4411 46.3277V46.7879H58.4519C58.5323 47.2511 58.9652 47.4826 59.7499 47.4826C59.9815 47.4826 60.2205 47.4627 60.4668 47.4222C60.7131 47.3823 60.927 47.327 61.1084 47.2562V48.0564C60.9322 48.1317 60.7058 48.1921 60.4292 48.2379C60.1526 48.2829 59.8753 48.3057 59.5987 48.3057C58.904 48.3057 58.3582 48.1383 57.9607 47.8035H57.9622ZM60.3628 46.0489C60.3481 45.807 60.2573 45.6197 60.0914 45.4869C59.9255 45.3534 59.6961 45.287 59.4048 45.287C59.1134 45.287 58.8914 45.3549 58.7255 45.4906C58.5596 45.6263 58.4688 45.8129 58.4541 46.0489H60.3635H60.3628Z" fill="#606060"/>
<path d="M22.7667 39.9953H0V0H22.7667V8.49556H10.3136V15.6776H22.0933V24.0846H10.3136V31.766H22.7667V39.9953Z" fill="#008300"/>
<path d="M65.9717 16.8406C65.8839 15.6215 65.6752 14.4245 65.3345 13.271C63.0939 5.53955 55.2517 0.179948 47.3115 0.179948H46.0046C45.9936 0.191011 45.9825 0.213136 45.9604 0.213136C45.5319 0.246325 45.1034 0.268451 44.6646 0.311965C44.3128 0.334091 43.9617 0.367279 43.621 0.432919C43.0715 0.531747 42.5228 0.641639 41.9844 0.762593C41.2815 0.904935 40.6119 1.10333 39.9414 1.32237C39.7106 1.39908 39.4908 1.48758 39.2718 1.56428C39.0409 1.65205 38.8211 1.73981 38.591 1.82758C38.3491 1.92641 38.108 2.02524 37.8771 2.14619C37.6028 2.27821 37.3387 2.40949 37.0754 2.5415C36.2959 2.94788 35.5377 3.40883 34.8127 3.91404C34.6807 4.0018 34.5383 4.10063 34.4174 4.21052C30.3315 7.18718 27.4433 11.6241 26.5428 16.7197C26.5096 16.9284 26.4882 17.1371 26.4661 17.3459C26.4005 17.8732 26.3562 18.4005 26.3452 18.9271C26.3341 19.7841 26.3452 20.6404 26.3673 21.4966C26.3783 21.9251 26.4219 22.3426 26.4551 22.76C26.4772 22.9798 26.4993 23.1996 26.5207 23.4186C26.5207 23.4629 26.5207 23.5064 26.5428 23.5396C27.7177 30.2725 32.3641 35.8511 38.6242 38.4878C38.7231 38.532 38.8219 38.5755 38.9207 38.6087C39.0527 38.664 39.1729 38.7186 39.305 38.7629C39.6892 38.9052 40.0735 39.0261 40.4585 39.1471C41.6444 39.4989 42.8525 39.7733 44.0827 39.9156C44.5547 39.9709 45.0164 40.0255 45.4884 40.0697C45.5437 40.0697 45.6093 40.0808 45.6639 40.0808C45.686 40.0919 45.7082 40.0919 45.7295 40.0919C45.9161 40.1029 46.0917 40.114 46.279 40.1251C46.4435 40.1361 46.6197 40.1361 46.7842 40.1361C46.9273 40.1472 47.0586 40.1472 47.1906 40.1472C47.5092 40.1583 47.8278 40.1361 48.1354 40.1251C48.8161 40.0919 49.4865 40.0697 50.1562 40.0373C50.4305 40.0152 50.6946 40.0041 50.9579 39.9717C51.4299 39.906 51.8916 39.8507 52.3525 39.7629C53.0008 39.642 53.6484 39.521 54.2856 39.3787C55.2628 39.1589 56.2186 38.8624 57.1634 38.5217C57.8006 38.2908 58.4482 38.0497 59.0854 37.7967C59.5685 37.599 60.0412 37.3903 60.5133 37.1816C60.8097 37.0496 61.0952 36.9176 61.4027 36.7752C61.3149 36.5665 61.2272 36.3578 61.1394 36.1601C60.9639 35.7427 60.7876 35.3363 60.6121 34.9189C60.5133 34.7102 60.4255 34.4904 60.3377 34.2816C60.0302 33.5567 59.7337 32.8317 59.4261 32.1178C59.4151 32.0846 59.3384 32.0624 59.3052 32.0735C58.6244 32.4142 57.9651 32.7764 57.2733 33.095C56.3071 33.5567 55.3071 33.9298 54.2856 34.2485C53.1985 34.6003 52.0892 34.8746 50.9689 35.0723C50.1894 35.2043 49.4201 35.2921 48.6295 35.3245C48.0365 35.3577 47.4325 35.3245 46.8285 35.3024C46.4553 35.2913 46.0703 35.2692 45.6971 35.2471C45.3128 35.2146 44.9175 35.1814 44.5436 35.1261C43.8739 35.0162 43.1925 34.9063 42.5339 34.7529C41.4903 34.5331 40.4798 34.171 39.5247 33.7093C38.8329 33.3797 38.1736 32.9843 37.5482 32.5448C36.9663 32.1273 36.4057 31.6774 35.8895 31.1722C35.6262 30.9303 35.3843 30.656 35.1534 30.3816C34.8016 29.9531 34.4616 29.5143 34.143 29.0637C33.5722 28.262 33.1215 27.3939 32.7373 26.4934C32.6274 26.2411 32.5286 25.9771 32.4408 25.7249C31.7269 24.0005 31.3426 22.1117 31.3426 20.1455C31.3426 18.7176 31.5514 17.3341 31.9356 16.0272C33.7809 9.73385 39.7224 5.13243 46.7842 5.13243C48.3551 5.13243 49.9364 5.36328 51.4409 5.83529C53.7693 6.54922 55.889 7.87824 57.5587 9.63502C60.008 12.2267 61.4691 15.7742 61.0952 19.3549C60.7987 22.1995 58.5249 26 55.2414 26.351C55.0438 26.3732 54.835 26.3732 54.6706 26.2633C54.4287 26.0988 54.3851 25.7691 54.3741 25.4837C54.352 24.5286 54.5386 22.6391 54.5386 22.6391L56.5815 10.2287L51.8149 10.2066C51.8149 10.2066 51.705 11.2716 51.6504 11.821V11.8653C51.4638 11.6898 51.2772 11.5135 51.0906 11.338C51.0464 11.3055 51.0139 11.2613 50.9697 11.2281C50.8708 11.1293 50.7609 11.0415 50.6511 10.9648C49.6075 10.1963 48.3994 9.66895 47.0704 9.44917C43.4351 8.86652 39.8876 10.8106 37.8115 14.117C37.8004 14.1384 37.7893 14.1494 37.7783 14.1605C36.8778 15.4674 36.2627 16.9719 35.9994 18.5753C35.6041 21.0025 35.8238 23.4518 36.9766 25.6371C37.0098 25.7138 37.0422 25.7802 37.0865 25.8569C37.0975 25.868 37.0975 25.8893 37.1197 25.9011C37.1307 25.9336 37.1529 25.9778 37.1742 26.011C38.4811 28.6248 40.7874 30.5365 43.632 30.9864C46.4221 31.4363 49.1568 30.4045 51.2101 28.405C51.4409 29.1079 51.8363 29.7009 52.4514 30.1073C55.164 31.985 59.2388 30.4915 61.4352 28.5039C63.7857 26.3842 65.2681 23.2977 65.8065 20.2008C65.9931 19.0916 66.0373 17.9602 65.9709 16.8399L65.9717 16.8406ZM49.6399 20.8823C49.1679 23.8914 46.7731 26.011 44.3135 25.6157C43.3687 25.4623 42.5449 24.9571 41.9195 24.2321C41.6562 23.9135 41.4143 23.5617 41.2277 23.1664C41.1621 23.0344 41.1067 22.9031 41.0522 22.7711C40.9423 22.4967 40.8545 22.2113 40.7889 21.9141C40.6133 21.1456 40.5801 20.3107 40.7232 19.4537C40.7778 19.1019 40.8663 18.773 40.9651 18.4544C41.064 18.1357 41.1849 17.8282 41.3383 17.5428C41.415 17.3894 41.4925 17.2573 41.5692 17.1143C41.6901 16.9055 41.8325 16.719 41.9755 16.5324C42.1186 16.3568 42.261 16.1806 42.4262 16.0272C43.4145 15.0278 44.7214 14.5005 46.0504 14.7092C47.0062 14.8633 47.8293 15.3685 48.4444 16.1039C48.7077 16.4225 48.9496 16.7743 49.1362 17.1585C49.2018 17.2905 49.2571 17.4218 49.3117 17.5649C49.4216 17.8393 49.5094 18.1144 49.575 18.4108C49.7505 19.1793 49.7837 20.0253 49.6406 20.8823H49.6399Z" fill="#008300"/>
</g>
<defs>
<clipPath id="clip0_1_67">
<rect width="66" height="50" fill="white"/>
</clipPath>
</defs>
</svg>
